<svg xmlns="http://www.w3.org/2000/svg" width="960" height="720" viewBox="0 0 960 720" role="img" aria-labelledby="title desc">
  <title id="title">Project photograph synthetic evaluation fixture 10</title>
  <desc id="desc">lens-like framing, irregular texture, real-world context</desc>
  <rect width="960" height="720" fill="#f8faf8"/>
  <rect width="960" height="720" fill="#82918a"/>
  <path d="M0 500L270 430L540 500L960 410V720H0Z" fill="#536159"/>
  <path d="M150 500V215L480 145L815 250V545L480 480Z" fill="#c4c9c3"/>
  <path d="M480 145L815 250V545L480 480Z" fill="#929d96"/>
  <g fill="#27312c"><rect x="210" y="285" width="100" height="150"/><rect x="350" y="255" width="90" height="165"/><rect x="545" y="260" width="90" height="155"/><rect x="665" y="300" width="85" height="145"/></g>
  <path d="M120 565L500 505L850 575" fill="none" stroke="#2d846b" stroke-width="10" opacity="0.65"/>
  <circle cx="289" cy="329" r="2" fill="#ffffff" opacity="0.18"/>
  <circle cx="362" cy="376" r="3" fill="#ffffff" opacity="0.18"/>
  <circle cx="435" cy="423" r="4" fill="#ffffff" opacity="0.18"/>
  <circle cx="508" cy="470" r="5" fill="#ffffff" opacity="0.18"/>
  <circle cx="581" cy="517" r="6" fill="#ffffff" opacity="0.18"/>
  <circle cx="654" cy="564" r="2" fill="#ffffff" opacity="0.18"/>
  <circle cx="727" cy="611" r="3" fill="#ffffff" opacity="0.18"/>
  <circle cx="800" cy="98" r="4" fill="#ffffff" opacity="0.18"/>
  <circle cx="873" cy="145" r="5" fill="#ffffff" opacity="0.18"/>
  <circle cx="126" cy="192" r="6" fill="#ffffff" opacity="0.18"/>
  <circle cx="199" cy="239" r="2" fill="#ffffff" opacity="0.18"/>
  <circle cx="272" cy="286" r="3" fill="#ffffff" opacity="0.18"/>
  <rect x="18" y="18" width="924" height="684" fill="none" stroke="#f4f5f2" stroke-width="8" opacity="0.7"/>
</svg>